<svg width="236" height="236" viewBox="0 0 236 236" fill="none" xmlns="http://www.w3.org/2000/svg">
<g filter="url(#filter0_d)">
<circle cx="118" cy="114" r="111.5" stroke="#F24E1E" stroke-width="5"/>
<circle cx="118" cy="114" r="90.5" fill="#F24E1E" stroke="#F24E1E"/>
<path d="M136.933 99.1566H114.385V55H136.933C149.102 55 159 64.9022 159 77.0758C159 89.2495 149.102 99.1566 136.933 99.1566ZM121.615 91.9242H136.933C145.116 91.9242 151.771 85.2621 151.771 77.0807C151.771 68.8994 145.111 62.2373 136.933 62.2373H121.615V91.9242ZM121.615 99.1566H99.0714C86.9029 99.1566 77.0049 89.2544 77.0049 77.0807C77.0049 64.9071 86.9029 55 99.0714 55H121.62V99.1566H121.615ZM99.0714 62.2324C90.8886 62.2324 84.2343 68.8945 84.2343 77.0758C84.2343 85.2572 90.8886 91.9242 99.0714 91.9242H114.39V62.2324H99.0714ZM121.615 136.076H99.0714C86.9029 136.076 77.0049 126.174 77.0049 114C77.0049 101.826 86.9029 91.9242 99.0714 91.9242H121.62V136.076H121.615ZM99.0714 99.1566C90.8886 99.1566 84.2343 105.819 84.2343 114C84.2343 122.181 90.8936 128.843 99.0714 128.843H114.39V99.1566H99.0714ZM99.1894 173C86.957 173 77 163.098 77 150.924C77 138.75 86.898 128.848 99.0665 128.848H121.615V150.683C121.615 162.99 111.555 173 99.1894 173ZM99.0714 136.076C95.138 136.081 91.3671 137.647 88.5857 140.429C85.8043 143.212 84.2395 146.984 84.2343 150.919C84.2343 159.105 90.9427 165.763 99.1943 165.763C107.574 165.763 114.395 158.997 114.395 150.678V136.076H99.0714ZM136.933 136.076H136.452C124.283 136.076 114.385 126.174 114.385 114C114.385 101.826 124.283 91.9242 136.452 91.9242H136.933C149.102 91.9242 159 101.826 159 114C159 126.174 149.102 136.076 136.933 136.076ZM136.457 99.1566C128.274 99.1566 121.62 105.819 121.62 114C121.62 122.181 128.279 128.843 136.457 128.843H136.938C145.121 128.843 151.776 122.181 151.776 114C151.776 105.819 145.116 99.1566 136.938 99.1566H136.457Z" fill="white"/>
</g>
<defs>
<filter id="filter0_d" x="0" y="0" width="236" height="236" filterUnits="userSpaceOnUse" color-interpolation-filters="sRGB">
<feFlood flood-opacity="0" result="BackgroundImageFix"/>
<feColorMatrix in="SourceAlpha" type="matrix" values="0 0 0 0 0 0 0 0 0 0 0 0 0 0 0 0 0 0 127 0"/>
<feOffset dy="4"/>
<feGaussianBlur stdDeviation="2"/>
<feColorMatrix type="matrix" values="0 0 0 0 0 0 0 0 0 0 0 0 0 0 0 0 0 0 0.25 0"/>
<feBlend mode="normal" in2="BackgroundImageFix" result="effect1_dropShadow"/>
<feBlend mode="normal" in="SourceGraphic" in2="effect1_dropShadow" result="shape"/>
</filter>
</defs>
</svg>
