<svg width="236" height="236" viewBox="0 0 236 236" fill="none" xmlns="http://www.w3.org/2000/svg">
<g filter="url(#filter0_d)">
<circle cx="118" cy="114" r="111.5" stroke="#FFCA28" stroke-width="5"/>
<circle cx="118" cy="114" r="90.5" fill="#FFCA28" stroke="#FFCA28"/>
<path d="M84.5448 127.219L95.0299 60.0379C95.1051 59.5396 95.3362 59.0776 95.6904 58.7178C96.0446 58.358 96.5037 58.1187 97.0024 58.034C97.501 57.9494 98.0138 58.0236 98.4676 58.2462C98.9214 58.4689 99.2932 58.8285 99.5298 59.2739L110.804 80.3456L84.5448 127.219ZM159 143.526L149.025 81.6927C148.956 81.2557 148.767 80.8463 148.479 80.5102C148.19 80.174 147.814 79.9244 147.391 79.7893C146.968 79.6541 146.516 79.6387 146.085 79.7447C145.654 79.8508 145.261 80.0741 144.95 80.3898L82 143.53L116.829 163.082C117.904 163.684 119.116 164 120.349 164C121.582 164 122.794 163.684 123.869 163.082L159 143.526ZM130.697 89.5675L122.628 74.1888C122.424 73.8021 122.119 73.4782 121.743 73.2522C121.368 73.0262 120.938 72.9068 120.5 72.9068C120.062 72.9068 119.632 73.0262 119.257 73.2522C118.881 73.4782 118.576 73.8021 118.372 74.1888L82.9488 137.431L130.697 89.5675Z" fill="#222222"/>
</g>
<defs>
<filter id="filter0_d" x="0" y="0" width="236" height="236" filterUnits="userSpaceOnUse" color-interpolation-filters="sRGB">
<feFlood flood-opacity="0" result="BackgroundImageFix"/>
<feColorMatrix in="SourceAlpha" type="matrix" values="0 0 0 0 0 0 0 0 0 0 0 0 0 0 0 0 0 0 127 0"/>
<feOffset dy="4"/>
<feGaussianBlur stdDeviation="2"/>
<feColorMatrix type="matrix" values="0 0 0 0 0 0 0 0 0 0 0 0 0 0 0 0 0 0 0.25 0"/>
<feBlend mode="normal" in2="BackgroundImageFix" result="effect1_dropShadow"/>
<feBlend mode="normal" in="SourceGraphic" in2="effect1_dropShadow" result="shape"/>
</filter>
</defs>
</svg>
