<svg width="236" height="236" viewBox="0 0 236 236" fill="none" xmlns="http://www.w3.org/2000/svg">
<g filter="url(#filter0_d)">
<circle cx="118" cy="114" r="112" stroke="#C21325" stroke-width="4"/>
<circle cx="118" cy="114" r="89" fill="#C21325" stroke="#C21325" stroke-width="4"/>
<path d="M165.885 113.145C165.879 109.875 164.798 106.699 162.81 104.113C160.822 101.527 158.04 99.6751 154.896 98.8475L169 57H99.1092L113.251 98.9805C110.198 99.876 107.516 101.743 105.606 104.302C103.696 106.861 102.662 109.973 102.659 113.173C102.659 118.128 105.113 122.517 108.856 125.219C107.351 127.356 105.636 129.335 103.74 131.128C100.251 134.473 96.1674 137.127 91.7034 138.952C87.7668 136.277 86.0628 131.561 87.6016 127.333C90.9503 126.286 93.8161 124.068 95.6804 121.079C97.5446 118.09 98.2841 114.529 97.765 111.039C97.246 107.549 95.5027 104.361 92.8506 102.053C90.1985 99.7444 86.8128 98.4674 83.3063 98.4532C79.4108 98.4583 75.6763 100.018 72.9218 102.79C70.1673 105.562 68.6176 109.32 68.6126 113.24C68.6126 117.268 70.2504 120.963 72.8748 123.604C72.6483 124.065 72.417 124.531 72.1857 125.025C69.9908 129.58 67.4986 134.729 66.5452 140.505C64.6429 152.057 67.7582 161.329 75.2726 166.578C79.3396 169.464 84.1966 171.009 89.1734 171C97.797 171 106.553 166.644 115.016 162.417C121.053 159.415 127.284 156.28 133.415 154.76C135.681 154.199 138.041 153.871 140.533 153.506C145.584 152.779 150.799 152.024 155.486 149.278C158.163 147.735 160.472 145.621 162.251 143.084C164.03 140.548 165.236 137.651 165.786 134.596C166.607 129.874 165.786 125.124 163.69 120.963C165.096 118.683 165.885 116.014 165.885 113.14V113.145ZM159.489 113.145C159.489 117.729 155.784 121.457 151.229 121.457C149.513 121.453 147.842 120.912 146.446 119.909C145.05 118.906 143.997 117.492 143.435 115.861C142.873 114.23 142.828 112.464 143.306 110.807C143.785 109.149 144.764 107.682 146.107 106.609L146.14 106.576C146.405 106.376 146.697 106.177 146.99 105.982C146.99 105.982 147.028 105.982 147.028 105.949C147.16 105.882 147.287 105.782 147.42 105.711C147.453 105.711 147.486 105.683 147.519 105.683C147.651 105.616 147.816 105.55 147.977 105.483C148.142 105.417 148.307 105.355 148.439 105.288C148.472 105.288 148.501 105.255 148.534 105.255C148.666 105.222 148.798 105.155 148.93 105.122C148.963 105.122 149.024 105.089 149.062 105.089C149.223 105.056 149.355 105.022 149.52 104.994H149.553L150.044 104.889C150.077 104.889 150.138 104.889 150.176 104.856C150.308 104.856 150.436 104.823 150.568 104.823H150.733C150.898 104.823 151.064 104.79 151.257 104.79H151.682C151.814 104.79 151.918 104.79 152.045 104.823H152.111C152.371 104.856 152.635 104.889 152.9 104.956C154.762 105.357 156.431 106.389 157.63 107.878C158.829 109.367 159.485 111.224 159.489 113.14V113.145ZM108.262 63.6025H159.852L148.01 98.7525C147.519 98.8475 147.028 99.0137 146.537 99.18L134.076 73.6012L121.577 99.0137C121.086 98.8522 120.557 98.7525 120.034 98.6527L108.262 63.5977V63.6025ZM131.711 110.271C131.108 107.224 129.557 104.45 127.284 102.348L134.071 88.5542L140.925 102.647C138.895 104.69 137.418 107.302 136.828 110.271H131.706H131.711ZM115.28 105.056C115.441 105.022 115.573 104.989 115.738 104.961H115.833C115.969 104.923 116.097 104.923 116.229 104.889H116.361C116.493 104.889 116.593 104.856 116.72 104.856H117.999C118.131 104.856 118.23 104.889 118.33 104.889C118.396 104.889 118.424 104.889 118.495 104.923C118.622 104.956 118.721 104.956 118.853 104.989C118.887 104.989 118.92 104.989 118.986 105.022L119.443 105.117H119.477C119.609 105.155 119.741 105.189 119.868 105.255C119.901 105.255 119.934 105.288 120 105.288C120.1 105.322 120.232 105.355 120.331 105.417C120.364 105.417 120.397 105.45 120.425 105.45C120.557 105.516 120.69 105.55 120.822 105.616H120.855C121.006 105.674 121.149 105.752 121.28 105.849H121.313C121.445 105.915 121.577 106.01 121.709 106.077C121.742 106.077 121.742 106.11 121.771 106.11C121.903 106.177 122.007 106.276 122.134 106.343L122.167 106.376C122.559 106.671 122.922 107.003 123.281 107.331L123.314 107.364C124.776 108.914 125.587 110.971 125.58 113.107C125.507 115.264 124.605 117.309 123.063 118.809C121.521 120.309 119.46 121.148 117.315 121.148C115.17 121.148 113.109 120.309 111.567 118.809C110.025 117.309 109.122 115.264 109.05 113.107C109.045 111.257 109.656 109.459 110.785 108C111.914 106.54 113.497 105.504 115.28 105.056V105.056ZM83.0042 104.823C87.5638 104.823 91.2691 108.556 91.2691 113.14C91.2691 117.724 87.5638 121.457 83.0089 121.457C78.454 121.457 74.7393 117.729 74.7393 113.145C74.7393 108.561 78.4493 104.823 83.0042 104.823V104.823ZM159.295 133.442C158.922 135.553 158.091 137.556 156.861 139.307C155.63 141.059 154.031 142.515 152.178 143.573C148.6 145.654 144.205 146.314 139.58 146.974C136.979 147.31 134.395 147.771 131.839 148.357C125.018 150.043 118.462 153.344 112.099 156.512C103.962 160.569 96.2866 164.397 89.1734 164.397C85.5258 164.42 81.9654 163.276 79.0063 161.129C71.7892 156.113 72.1479 146.708 73.0023 141.559C73.7905 136.738 75.9854 132.221 78.0858 127.894C78.218 127.632 78.3171 127.4 78.4493 127.134C79.1667 127.4 79.922 127.599 80.7102 127.732C79.4641 134.729 83.0042 141.954 89.8956 145.521L91.1417 146.181L92.4822 145.687C98.2219 143.64 103.537 140.305 108.229 135.85C110.819 133.419 113.109 130.682 115.049 127.699C115.804 127.827 116.56 127.86 117.315 127.86C120.562 127.853 123.715 126.765 126.283 124.765C128.851 122.766 130.69 119.968 131.513 116.807H137.021C137.839 119.973 139.677 122.776 142.249 124.776C144.82 126.777 147.979 127.861 151.229 127.86C153.948 127.86 156.468 127.1 158.639 125.818C159.489 128.288 159.753 130.867 159.295 133.442Z" fill="#D4D4D4"/>
</g>
<defs>
<filter id="filter0_d" x="0" y="0" width="236" height="236" filterUnits="userSpaceOnUse" color-interpolation-filters="sRGB">
<feFlood flood-opacity="0" result="BackgroundImageFix"/>
<feColorMatrix in="SourceAlpha" type="matrix" values="0 0 0 0 0 0 0 0 0 0 0 0 0 0 0 0 0 0 127 0"/>
<feOffset dy="4"/>
<feGaussianBlur stdDeviation="2"/>
<feColorMatrix type="matrix" values="0 0 0 0 0 0 0 0 0 0 0 0 0 0 0 0 0 0 0.25 0"/>
<feBlend mode="normal" in2="BackgroundImageFix" result="effect1_dropShadow"/>
<feBlend mode="normal" in="SourceGraphic" in2="effect1_dropShadow" result="shape"/>
</filter>
</defs>
</svg>
