<svg width="236" height="236" viewBox="0 0 236 236" fill="none" xmlns="http://www.w3.org/2000/svg">
<g filter="url(#filter0_d)">
<circle cx="118" cy="114" r="111.5" stroke="#F7DF1E" stroke-width="5"/>
<circle cx="118" cy="114" r="91" fill="#F7DF1E"/>
<path d="M143.266 108.676C154.281 113.145 157.995 117.937 158.906 123.64L158.667 123.291C159.531 128.213 158.432 131.416 158.281 131.885C154.214 145.791 131.557 146.26 122.495 137.114C120.62 134.926 119.37 133.838 118.276 131.338L127.807 125.864C130.385 129.77 132.724 131.885 136.948 132.822C142.656 133.525 148.437 131.572 147.187 125.478C145.859 120.473 135.464 119.306 128.354 113.994C121.167 109.15 119.453 97.4315 125.391 90.7075C127.422 88.2075 130.776 86.3325 134.297 85.4732L137.969 85.0096C145.078 84.8482 149.448 86.7232 152.729 90.395C153.677 91.3273 154.374 92.2704 155.781 94.4579C152.026 96.7961 152.026 96.7963 146.641 100.317C145.464 97.8169 143.589 96.2544 141.557 95.6294C138.432 94.6919 134.448 95.7023 133.667 99.0669C133.359 100.083 133.432 101.02 133.906 102.739C135.172 105.629 139.432 106.879 143.266 108.676Z" fill="#252525"/>
<path d="M100.411 85.9055H112.12L112.099 86.1971C112.099 96.9784 112.161 107.681 112.099 118.379C112.125 125.025 112.687 130.963 110.031 135.806C108.193 139.556 104.677 141.978 100.599 143.155C94.3333 144.562 88.349 143.702 83.8958 141.046C80.9063 139.249 78.5885 136.426 77 133.145L86.5052 127.286C86.5938 127.286 86.8385 127.76 87.1666 128.306C88.3802 130.333 89.4271 131.739 91.4896 132.76C93.5 133.39 97.9271 133.848 99.6458 130.26C100.693 128.447 100.365 122.557 100.365 116.14C100.365 106.03 100.411 95.9992 100.411 85.9055Z" fill="#252525"/>
</g>
<defs>
<filter id="filter0_d" x="0" y="0" width="236" height="236" filterUnits="userSpaceOnUse" color-interpolation-filters="sRGB">
<feFlood flood-opacity="0" result="BackgroundImageFix"/>
<feColorMatrix in="SourceAlpha" type="matrix" values="0 0 0 0 0 0 0 0 0 0 0 0 0 0 0 0 0 0 127 0"/>
<feOffset dy="4"/>
<feGaussianBlur stdDeviation="2"/>
<feColorMatrix type="matrix" values="0 0 0 0 0 0 0 0 0 0 0 0 0 0 0 0 0 0 0.25 0"/>
<feBlend mode="normal" in2="BackgroundImageFix" result="effect1_dropShadow"/>
<feBlend mode="normal" in="SourceGraphic" in2="effect1_dropShadow" result="shape"/>
</filter>
</defs>
</svg>
