<svg width="236" height="236" viewBox="0 0 236 236" fill="none" xmlns="http://www.w3.org/2000/svg">
<g filter="url(#filter0_d)">
<circle cx="118" cy="114" r="111.5" stroke="#20232A" stroke-width="5"/>
<circle cx="118" cy="114" r="90.5" fill="#20232A" stroke="#20232A"/>
<path d="M130.601 113.804C130.601 117.287 129.218 120.627 126.756 123.091C124.293 125.554 120.954 126.939 117.471 126.94C113.987 126.94 110.645 125.556 108.182 123.093C105.718 120.629 104.334 117.288 104.334 113.804C104.334 110.321 105.717 106.98 108.18 104.517C110.642 102.054 113.982 100.669 117.465 100.667C120.949 100.667 124.29 102.051 126.754 104.515C129.217 106.978 130.601 110.32 130.601 113.804ZM146.158 51C138.251 51 127.905 56.64 117.441 66.4043C106.984 56.6929 96.632 51.1175 88.7301 51.1175C86.3214 51.1175 84.13 51.6639 82.2324 52.7507C74.1543 57.4096 72.3448 71.9267 76.516 90.1451C58.6325 95.6676 47 104.498 47 113.804C47 123.145 58.6913 131.999 76.6276 137.48C72.4916 155.769 74.3364 170.309 82.4321 174.962C84.3121 176.061 86.4859 176.578 88.9064 176.578C96.8083 176.578 107.16 170.938 117.623 161.162C128.081 170.879 138.433 176.455 146.335 176.455C148.743 176.455 150.935 175.926 152.832 174.839C160.905 170.186 162.72 155.669 158.549 137.445C176.367 131.969 188 123.121 188 113.804C188 104.462 176.309 95.6089 158.372 90.1157C162.508 71.8445 160.664 57.2921 152.568 52.6332C150.7 51.5522 148.526 51.0059 146.152 51H146.158ZM146.129 57.4037V57.439C147.451 57.439 148.514 57.6975 149.407 58.1851C153.32 60.4294 155.018 68.9657 153.696 79.9461C153.379 82.6486 152.862 85.498 152.227 88.4061C146.587 87.0196 140.442 85.9562 133.974 85.2689C130.096 79.952 126.072 75.1227 122.018 70.8927C131.371 62.1977 140.154 57.4272 146.135 57.4096L146.129 57.4037ZM88.7301 57.5212C94.6756 57.5212 103.5 62.2682 112.876 70.9162C108.846 75.1462 104.828 79.9461 101.009 85.263C94.5052 85.9504 88.3541 87.0137 82.72 88.4237C82.062 85.545 81.5744 82.7602 81.2278 80.0812C79.8765 69.1067 81.545 60.5762 85.4225 58.3026C86.5387 57.7739 87.7725 57.5565 88.7301 57.5271V57.5212ZM117.412 75.44C120.085 78.1895 122.758 81.268 125.402 84.6285C122.817 84.511 120.173 84.4287 117.5 84.4287C114.798 84.4287 112.124 84.4875 109.51 84.6285C112.095 81.268 114.768 78.1895 117.412 75.4341V75.44ZM117.5 90.8677C121.848 90.8677 126.177 91.0675 130.437 91.4141C132.822 94.8334 135.148 98.4817 137.387 102.342C139.572 106.102 141.558 109.92 143.368 113.774C141.558 117.622 139.572 121.471 137.416 125.231C135.184 129.108 132.875 132.798 130.484 136.217C126.207 136.587 121.871 136.793 117.5 136.793C113.152 136.793 108.823 136.587 104.563 136.246C102.178 132.827 99.8515 129.173 97.6131 125.319C95.4276 121.559 93.4419 117.74 91.6324 113.886C93.4125 110.026 95.4276 106.172 97.5837 102.406C99.8162 98.5287 102.125 94.851 104.516 91.4317C108.793 91.0557 113.129 90.856 117.5 90.856V90.8677ZM96.1444 92.36C94.7344 94.5749 93.3244 96.8426 92.0084 99.175C90.6865 101.466 89.4528 103.769 88.2778 106.072C86.7209 102.218 85.399 98.376 84.3062 94.6336C88.0662 93.7524 92.0319 92.971 96.1444 92.3659V92.36ZM138.797 92.36C142.88 92.9651 146.816 93.7112 150.582 94.6336C149.525 98.3466 148.203 102.165 146.705 105.99C145.53 103.699 144.296 101.39 142.945 99.0927C141.623 96.7897 140.213 94.5455 138.803 92.36H138.797ZM156.792 96.3256C159.635 97.2069 162.338 98.188 164.87 99.2514C175.046 103.599 181.626 109.286 181.626 113.798C181.596 118.31 175.016 124.02 164.841 128.338C162.373 129.396 159.671 130.348 156.88 131.235C155.235 125.607 153.085 119.743 150.418 113.727C153.061 107.752 155.176 101.919 156.792 96.3139V96.3256ZM78.0964 96.3491C79.7296 101.989 81.8857 107.846 84.5589 113.857C81.9151 119.831 79.7884 125.665 78.1786 131.27C75.3351 130.389 72.6326 129.402 70.1299 128.333C59.9544 124.003 53.3744 118.31 53.3744 113.798C53.3744 109.286 59.9544 103.564 70.1299 99.2514C72.5974 98.1939 75.2999 97.2421 78.0964 96.3491ZM146.705 121.494C148.262 125.354 149.583 129.202 150.676 132.939C146.916 133.861 142.945 134.642 138.832 135.23C140.242 133.027 141.652 130.753 142.974 128.427C144.296 126.135 145.53 123.797 146.711 121.494H146.705ZM88.2778 121.612C89.4528 123.915 90.6865 126.212 92.0378 128.515C93.389 130.806 94.7696 133.05 96.1796 135.23C92.0965 134.631 88.1602 133.879 84.3944 132.962C85.4519 129.261 86.7796 125.43 88.2719 121.606L88.2778 121.612ZM152.28 139.16C152.938 142.057 153.455 144.847 153.772 147.52C155.123 158.495 153.455 167.025 149.577 169.305C148.714 169.834 147.592 170.057 146.27 170.057C140.324 170.057 131.5 165.316 122.124 156.662C126.154 152.432 130.172 147.638 133.991 142.327C140.495 141.634 146.646 140.564 152.28 139.154V139.16ZM82.7788 139.219C88.4188 140.594 94.564 141.657 101.032 142.344C104.91 147.661 108.934 152.491 112.988 156.715C103.617 165.427 94.8225 170.198 88.8418 170.198C87.5493 170.168 86.4565 169.904 85.5929 169.422C81.6801 167.19 79.9823 158.648 81.3041 147.667C81.6214 144.965 82.1384 142.121 82.7729 139.219H82.7788ZM109.569 142.979C112.154 143.096 114.798 143.179 117.471 143.179C120.173 143.179 122.846 143.12 125.461 142.979C122.876 146.339 120.202 149.412 117.559 152.173C114.886 149.412 112.212 146.339 109.569 142.979Z" fill="#61DAFB"/>
</g>
<defs>
<filter id="filter0_d" x="0" y="0" width="236" height="236" filterUnits="userSpaceOnUse" color-interpolation-filters="sRGB">
<feFlood flood-opacity="0" result="BackgroundImageFix"/>
<feColorMatrix in="SourceAlpha" type="matrix" values="0 0 0 0 0 0 0 0 0 0 0 0 0 0 0 0 0 0 127 0"/>
<feOffset dy="4"/>
<feGaussianBlur stdDeviation="2"/>
<feColorMatrix type="matrix" values="0 0 0 0 0 0 0 0 0 0 0 0 0 0 0 0 0 0 0.25 0"/>
<feBlend mode="normal" in2="BackgroundImageFix" result="effect1_dropShadow"/>
<feBlend mode="normal" in="SourceGraphic" in2="effect1_dropShadow" result="shape"/>
</filter>
</defs>
</svg>
