<svg width="236" height="236" viewBox="0 0 236 236" fill="none" xmlns="http://www.w3.org/2000/svg">
<g filter="url(#filter0_d)">
<circle cx="118" cy="114" r="111.5" stroke="#FF69B4" stroke-width="5"/>
<path d="M99.3086 145.255L99.5947 145.12V145.081C100.719 149.642 100.531 153.897 99.2592 157.744C99.2585 157.746 99.2578 157.748 99.2571 157.75L98.7736 159.089C98.7727 159.092 98.7718 159.094 98.771 159.096C98.6153 159.491 98.4367 159.875 98.2589 160.257C98.2377 160.302 98.2166 160.348 98.1955 160.393C97.157 162.543 95.7757 164.55 94.0705 166.411C91.4787 169.23 88.3774 171.169 85.5498 172.178C82.6899 173.198 80.2322 173.227 78.841 172.422C78.1454 172.017 77.6739 171.282 77.4686 170.237C77.2623 169.186 77.3344 167.858 77.706 166.357C78.4485 163.359 80.3611 159.778 83.3808 156.591C86.6425 153.153 90.6224 150.318 93.7978 148.339C95.3835 147.35 96.7639 146.578 97.747 146.054C98.2385 145.791 98.6304 145.591 98.8987 145.457C99.0329 145.39 99.1361 145.339 99.2055 145.305L99.2836 145.267L99.3029 145.258L99.3075 145.256L99.3085 145.256L99.3086 145.255ZM118.621 49.0099C103.5 54.3849 87.0891 62.8394 75.2752 73.8906C61.2296 87.0065 58.8829 98.5439 59.8454 103.531L59.8454 103.531C61.5006 112.102 68.1828 119.132 75.5275 124.998C79.1958 127.928 83.0554 130.587 86.5768 133.012L86.6137 133.038C89.8872 135.293 92.854 137.339 95.1302 139.225C93.0421 140.272 87.8674 142.966 82.4941 146.568C79.4591 148.603 76.3514 150.934 73.6978 153.428C71.0494 155.917 68.8266 158.594 67.5935 161.325C64.9821 167.013 65.171 171.93 66.5427 175.575C67.9006 179.182 70.4427 181.585 72.582 182.149C84.772 185.522 97.2609 179.356 103.953 169.441L103.955 169.438C107.198 164.57 108.67 159.019 108.988 153.929C109.286 149.134 108.562 144.713 107.292 141.621C110.868 140.719 115.074 140.344 120.42 140.993L120.423 140.993C136.12 142.786 139.049 152.572 138.414 156.338L138.414 156.339C137.769 160.205 134.646 162.491 133.54 163.15L133.537 163.152C132.989 163.485 132.564 163.743 132.303 163.985C132.164 164.115 132.035 164.271 131.963 164.47C131.89 164.672 131.893 164.868 131.933 165.049C131.974 165.282 132.061 165.5 132.22 165.678C132.384 165.862 132.59 165.965 132.797 166.019C133.177 166.119 133.643 166.072 134.079 166.017L134.092 166.016L134.105 166.013C134.493 165.943 135.222 165.673 136.084 165.212C136.958 164.744 138.004 164.059 139.021 163.131C141.057 161.272 142.99 158.423 143.168 154.388L143.168 154.384C143.522 144.256 133.89 133.168 117.068 133.391L117.066 133.391C110.49 133.508 106.157 134.039 103.027 135.228C102.84 135.008 102.635 134.828 102.389 134.656C99.8077 131.882 96.6885 129.321 93.4934 126.825C92.6963 126.203 91.8951 125.585 91.0959 124.968C88.665 123.092 86.2525 121.231 84.0312 119.302C78.1201 114.171 73.737 108.709 74.1216 101.621L74.1219 101.615C74.2324 99.0169 74.7507 94.2616 79.4667 88.0361C84.1961 81.7929 93.1669 74.0458 110.245 65.535C124.232 58.566 136.779 56.0598 146.283 56.3423C151.036 56.4835 155.013 57.3217 158.025 58.6345C161.043 59.9499 163.049 61.7208 163.947 63.7014L163.948 63.7028C165.27 66.5955 165.239 70.1535 163.95 73.9562C162.661 77.7571 160.126 81.7692 156.497 85.5241C149.242 93.0324 137.664 99.4641 123.161 101.097C112.171 102.33 106.527 98.0733 105.149 96.5896C104.752 96.1626 104.433 95.8271 104.169 95.572C103.91 95.3207 103.683 95.1254 103.47 94.9964C103.248 94.8614 103.01 94.7789 102.744 94.8037C102.506 94.8258 102.309 94.9299 102.157 95.022C101.417 95.4057 101.359 96.1914 101.436 96.7752C101.513 97.3602 101.749 97.9876 101.913 98.4261L101.933 98.4781L101.933 98.4781L101.937 98.4882C102.912 100.926 106.569 104.996 112.829 107.081L112.835 107.083C118.296 108.828 131.503 109.831 147.294 103.659C156.205 100.212 164.131 93.6902 169.331 86.0165C174.201 78.8302 176.712 70.5839 175.335 62.8756L175.97 63.4582L175.557 61.8324C173.434 53.4784 165.478 48.0245 155.006 45.7824C144.517 43.5366 131.379 44.475 118.621 49.0099ZM118 23.5C167.979 23.5 208.5 64.0214 208.5 114C208.5 163.979 167.979 204.5 118 204.5C68.0214 204.5 27.5 163.979 27.5 114C27.5 64.0214 68.0214 23.5 118 23.5Z" fill="#FF69B4" stroke="#FF69B4"/>
</g>
<defs>
<filter id="filter0_d" x="0" y="0" width="236" height="236" filterUnits="userSpaceOnUse" color-interpolation-filters="sRGB">
<feFlood flood-opacity="0" result="BackgroundImageFix"/>
<feColorMatrix in="SourceAlpha" type="matrix" values="0 0 0 0 0 0 0 0 0 0 0 0 0 0 0 0 0 0 127 0"/>
<feOffset dy="4"/>
<feGaussianBlur stdDeviation="2"/>
<feColorMatrix type="matrix" values="0 0 0 0 0 0 0 0 0 0 0 0 0 0 0 0 0 0 0.25 0"/>
<feBlend mode="normal" in2="BackgroundImageFix" result="effect1_dropShadow"/>
<feBlend mode="normal" in="SourceGraphic" in2="effect1_dropShadow" result="shape"/>
</filter>
</defs>
</svg>
