<svg width="236" height="236" viewBox="0 0 236 236" fill="none" xmlns="http://www.w3.org/2000/svg">
<g filter="url(#filter0_d)">
<circle cx="118" cy="114" r="111.5" stroke="#FF4785" stroke-width="5"/>
<circle cx="118" cy="114" r="90.5" fill="#FF4785" stroke="#FF4785"/>
<path d="M142.878 51.2838L142.243 65.6242C142.235 65.8056 142.28 65.9854 142.371 66.1425C142.462 66.2995 142.596 66.4273 142.757 66.5107C142.918 66.5941 143.1 66.6297 143.281 66.6133C143.462 66.5968 143.634 66.5291 143.778 66.4179L149.387 62.1846L154.149 65.8888C154.289 65.9825 154.451 66.0376 154.619 66.0483C154.787 66.0589 154.955 66.0249 155.106 65.9496C155.256 65.8743 155.384 65.7605 155.477 65.6196C155.569 65.4788 155.622 65.3161 155.631 65.1479L155.102 50.5429L162.14 50.0138C163.008 49.9565 163.879 50.0783 164.698 50.3717C165.518 50.665 166.268 51.1237 166.903 51.7191C167.537 52.3146 168.043 53.0342 168.388 53.8331C168.733 54.6321 168.91 55.4935 168.908 56.3638V170.643C168.909 171.504 168.735 172.356 168.396 173.148C168.057 173.94 167.561 174.655 166.937 175.249C166.313 175.843 165.575 176.304 164.768 176.604C163.96 176.903 163.1 177.036 162.24 176.993L77.0656 173.183C75.4637 173.117 73.946 172.447 72.8173 171.309C71.6885 170.17 71.0322 168.647 70.9802 167.044L67.0114 62.2852C66.9613 61.4509 67.0764 60.6151 67.35 59.8254C67.6237 59.0358 68.0505 58.3079 68.606 57.6836C69.1615 57.0592 69.8348 56.5507 70.5873 56.1871C71.3398 55.8235 72.1566 55.612 72.991 55.5647L142.825 51.1727L142.878 51.2838ZM126.633 99.2104C126.633 101.697 143.354 100.48 145.63 98.7871C145.63 81.8537 136.528 72.9108 119.917 72.9108C103.249 72.9108 93.9936 82.0125 93.9936 95.6121C93.9936 119.16 125.738 119.583 125.738 132.437C125.738 136.141 124.045 138.258 120.182 138.258C115.102 138.258 113.038 135.665 113.303 126.828C113.303 124.923 93.9936 124.288 93.3586 126.828C91.9299 148.153 105.159 154.344 120.341 154.344C135.105 154.344 146.635 146.46 146.635 132.225C146.635 106.984 114.361 107.672 114.361 95.1887C114.361 90.0558 118.171 89.3679 120.341 89.3679C122.722 89.3679 126.955 89.7383 126.638 99.2633L126.633 99.2104Z" fill="white"/>
</g>
<defs>
<filter id="filter0_d" x="0" y="0" width="236" height="236" filterUnits="userSpaceOnUse" color-interpolation-filters="sRGB">
<feFlood flood-opacity="0" result="BackgroundImageFix"/>
<feColorMatrix in="SourceAlpha" type="matrix" values="0 0 0 0 0 0 0 0 0 0 0 0 0 0 0 0 0 0 127 0"/>
<feOffset dy="4"/>
<feGaussianBlur stdDeviation="2"/>
<feColorMatrix type="matrix" values="0 0 0 0 0 0 0 0 0 0 0 0 0 0 0 0 0 0 0.25 0"/>
<feBlend mode="normal" in2="BackgroundImageFix" result="effect1_dropShadow"/>
<feBlend mode="normal" in="SourceGraphic" in2="effect1_dropShadow" result="shape"/>
</filter>
</defs>
</svg>
