<svg width="236" height="236" viewBox="0 0 236 236" fill="none" xmlns="http://www.w3.org/2000/svg">
<g filter="url(#filter0_d)">
<circle cx="118" cy="114" r="111.5" stroke="#DB7092" stroke-width="5"/>
<circle cx="118" cy="114" r="90.5" fill="#DB7092" stroke="#DB7092"/>
<mask id="path-3-inside-1" fill="white">
<path d="M143.555 73L143.127 75.2021C142.465 79.3753 142.704 80.5693 144.52 82.1181L146.272 83.5486L144.457 91.5347C143.372 96.2993 142.042 100.292 141.197 101.605C140.472 102.737 139.628 104.404 139.445 105.299C139.142 106.369 138.115 107.445 136.545 108.397C135.158 109.174 132.435 111.258 130.506 112.93C128.964 114.299 127.903 115.138 127.326 115.498L125.442 116.968C124.837 117.926 124.495 118.697 124.364 119.283C124.232 119.886 124.306 120.286 124.501 120.578C124.689 120.86 125.014 121.057 125.46 121.181C125.987 121.303 126.529 121.347 127.069 121.311C128.291 121.228 129.501 121.017 130.677 120.68C131.076 120.573 131.39 120.471 131.664 120.381C132.087 119.869 133.063 118.9 134.793 117.216C139.382 112.75 141.135 110.306 139.325 110.965C138.657 111.201 138.96 110.604 140.107 109.41C142.527 107.084 143.915 103.57 146.814 92.5484C149.109 83.8471 149.109 83.7232 150.799 83.7232C151.592 83.7232 153.836 83.8583 153.836 83.8583V73H148.687H143.555ZM165.469 90.825C165.104 90.825 164.499 91.3657 164.139 91.9627C163.477 93.0327 164.259 93.686 174.226 99.8248C180.145 103.525 184.917 106.679 184.798 106.921C184.678 107.096 179.843 110.199 174.049 113.775C163.534 120.207 163.477 120.269 164.442 121.581C165.652 123.13 164.442 123.665 178.09 115.262L188 109.005V104.297L176.943 97.5608C170.966 93.8663 165.772 90.887 165.469 90.825ZM73.6507 91.484C73.3481 91.484 68.1535 94.5252 62.1769 98.1578L51 104.894V109.602L62.1141 116.456C68.2791 120.207 73.4737 123.31 73.7135 123.31C73.9532 123.31 74.4384 122.769 74.9236 122.116C75.6486 120.984 75.0378 120.505 64.8313 114.13C55.11 108.109 54.0825 107.276 55.0529 106.623C55.658 106.206 60.2475 103.401 65.2023 100.366C76.4991 93.5115 75.894 93.9845 74.9864 92.554C74.6268 91.9627 74.016 91.4276 73.6564 91.484H73.6507ZM123.222 91.6135C121.555 91.6022 117.97 94.1084 107.239 102.753C106.776 103.84 106.736 104.589 106.947 105.074C107.084 105.406 107.336 105.637 107.684 105.806C108.026 105.975 108.472 106.076 108.962 106.116C109.939 106.2 111.092 106.048 112.022 105.868L112.65 105.727C112.865 105.443 113.147 105.215 113.472 105.063C114.134 104.702 116.914 102.202 119.694 99.5207C124.586 94.6322 125.734 92.4245 123.741 91.7092C123.578 91.6451 123.403 91.6126 123.228 91.6135H123.222ZM135.757 95.0095C134.29 95.049 131.647 96.7273 127.121 100.292C124.849 102.111 123.41 103.091 122.64 103.294L119.648 105.626C118.524 107.653 118.358 108.909 118.655 109.602C118.729 109.773 118.837 109.927 118.973 110.057C119.108 110.186 119.268 110.288 119.443 110.357C119.879 110.526 120.344 110.612 120.813 110.61C121.933 110.598 123.047 110.437 124.124 110.131C124.685 109.983 125.239 109.81 125.785 109.613L125.95 109.546L126.253 109.388C126.824 108.661 128.137 107.293 129.781 105.716C134.975 100.771 137.63 97.2567 137.087 95.9444C136.842 95.308 136.42 94.987 135.757 95.0095ZM121.92 101.092C121.498 101.137 120.55 101.858 118.844 103.334C116.378 105.485 113.689 106.724 112.758 106.172C112.542 106.22 112.325 106.265 112.108 106.307C111.16 106.493 109.979 106.645 108.922 106.561C108.425 106.531 107.937 106.411 107.484 106.206C107.056 106.013 106.715 105.672 106.525 105.248C106.314 104.742 106.314 104.111 106.554 103.305L102.843 106.313L94.4461 113.167V124.279L121.96 102.894C121.955 102.66 121.986 102.427 122.052 102.202C122.263 101.447 122.251 101.064 121.92 101.098V101.092ZM133.759 104.691C133.343 104.691 132.646 105.271 131.533 106.437C130.02 108.031 127.64 109.574 126.379 109.889L126.184 109.99C125.977 110.075 125.768 110.154 125.557 110.227C125.214 110.34 124.769 110.475 124.255 110.61C123.228 110.886 121.949 111.139 120.807 111.111C120.269 111.111 119.736 111.007 119.237 110.807C118.768 110.616 118.391 110.253 118.187 109.793C117.856 109.01 117.987 107.912 118.712 106.352L94.4404 125.214V132H105.104L127.72 114.473C128.308 113.831 129.193 112.953 130.386 111.855C133.582 108.932 134.307 107.924 134.307 106.431C134.307 105.271 134.176 104.685 133.759 104.685V104.691ZM139.142 115.673L137.207 117.577C136.123 118.59 134.188 119.841 132.863 120.376L132.601 120.488L132.584 120.517L132.526 120.573C132.475 120.612 132.452 120.618 132.412 120.635C131.884 120.832 131.346 121.007 130.802 121.159C129.593 121.506 128.349 121.723 127.092 121.806C126.498 121.844 125.901 121.793 125.323 121.654C124.82 121.545 124.377 121.256 124.078 120.843C123.804 120.426 123.724 119.869 123.878 119.182C124.001 118.693 124.183 118.22 124.421 117.774L106.171 132H130.443L133.343 128.722C137.327 124.138 139.142 120.86 139.142 118.055V115.673Z"/>
</mask>
<path d="M143.555 73L143.127 75.2021C142.465 79.3753 142.704 80.5693 144.52 82.1181L146.272 83.5486L144.457 91.5347C143.372 96.2993 142.042 100.292 141.197 101.605C140.472 102.737 139.628 104.404 139.445 105.299C139.142 106.369 138.115 107.445 136.545 108.397C135.158 109.174 132.435 111.258 130.506 112.93C128.964 114.299 127.903 115.138 127.326 115.498L125.442 116.968C124.837 117.926 124.495 118.697 124.364 119.283C124.232 119.886 124.306 120.286 124.501 120.578C124.689 120.86 125.014 121.057 125.46 121.181C125.987 121.303 126.529 121.347 127.069 121.311C128.291 121.228 129.501 121.017 130.677 120.68C131.076 120.573 131.39 120.471 131.664 120.381C132.087 119.869 133.063 118.9 134.793 117.216C139.382 112.75 141.135 110.306 139.325 110.965C138.657 111.201 138.96 110.604 140.107 109.41C142.527 107.084 143.915 103.57 146.814 92.5484C149.109 83.8471 149.109 83.7232 150.799 83.7232C151.592 83.7232 153.836 83.8583 153.836 83.8583V73H148.687H143.555ZM165.469 90.825C165.104 90.825 164.499 91.3657 164.139 91.9627C163.477 93.0327 164.259 93.686 174.226 99.8248C180.145 103.525 184.917 106.679 184.798 106.921C184.678 107.096 179.843 110.199 174.049 113.775C163.534 120.207 163.477 120.269 164.442 121.581C165.652 123.13 164.442 123.665 178.09 115.262L188 109.005V104.297L176.943 97.5608C170.966 93.8663 165.772 90.887 165.469 90.825ZM73.6507 91.484C73.3481 91.484 68.1535 94.5252 62.1769 98.1578L51 104.894V109.602L62.1141 116.456C68.2791 120.207 73.4737 123.31 73.7135 123.31C73.9532 123.31 74.4384 122.769 74.9236 122.116C75.6486 120.984 75.0378 120.505 64.8313 114.13C55.11 108.109 54.0825 107.276 55.0529 106.623C55.658 106.206 60.2475 103.401 65.2023 100.366C76.4991 93.5115 75.894 93.9845 74.9864 92.554C74.6268 91.9627 74.016 91.4276 73.6564 91.484H73.6507ZM123.222 91.6135C121.555 91.6022 117.97 94.1084 107.239 102.753C106.776 103.84 106.736 104.589 106.947 105.074C107.084 105.406 107.336 105.637 107.684 105.806C108.026 105.975 108.472 106.076 108.962 106.116C109.939 106.2 111.092 106.048 112.022 105.868L112.65 105.727C112.865 105.443 113.147 105.215 113.472 105.063C114.134 104.702 116.914 102.202 119.694 99.5207C124.586 94.6322 125.734 92.4245 123.741 91.7092C123.578 91.6451 123.403 91.6126 123.228 91.6135H123.222ZM135.757 95.0095C134.29 95.049 131.647 96.7273 127.121 100.292C124.849 102.111 123.41 103.091 122.64 103.294L119.648 105.626C118.524 107.653 118.358 108.909 118.655 109.602C118.729 109.773 118.837 109.927 118.973 110.057C119.108 110.186 119.268 110.288 119.443 110.357C119.879 110.526 120.344 110.612 120.813 110.61C121.933 110.598 123.047 110.437 124.124 110.131C124.685 109.983 125.239 109.81 125.785 109.613L125.95 109.546L126.253 109.388C126.824 108.661 128.137 107.293 129.781 105.716C134.975 100.771 137.63 97.2567 137.087 95.9444C136.842 95.308 136.42 94.987 135.757 95.0095ZM121.92 101.092C121.498 101.137 120.55 101.858 118.844 103.334C116.378 105.485 113.689 106.724 112.758 106.172C112.542 106.22 112.325 106.265 112.108 106.307C111.16 106.493 109.979 106.645 108.922 106.561C108.425 106.531 107.937 106.411 107.484 106.206C107.056 106.013 106.715 105.672 106.525 105.248C106.314 104.742 106.314 104.111 106.554 103.305L102.843 106.313L94.4461 113.167V124.279L121.96 102.894C121.955 102.66 121.986 102.427 122.052 102.202C122.263 101.447 122.251 101.064 121.92 101.098V101.092ZM133.759 104.691C133.343 104.691 132.646 105.271 131.533 106.437C130.02 108.031 127.64 109.574 126.379 109.889L126.184 109.99C125.977 110.075 125.768 110.154 125.557 110.227C125.214 110.34 124.769 110.475 124.255 110.61C123.228 110.886 121.949 111.139 120.807 111.111C120.269 111.111 119.736 111.007 119.237 110.807C118.768 110.616 118.391 110.253 118.187 109.793C117.856 109.01 117.987 107.912 118.712 106.352L94.4404 125.214V132H105.104L127.72 114.473C128.308 113.831 129.193 112.953 130.386 111.855C133.582 108.932 134.307 107.924 134.307 106.431C134.307 105.271 134.176 104.685 133.759 104.685V104.691ZM139.142 115.673L137.207 117.577C136.123 118.59 134.188 119.841 132.863 120.376L132.601 120.488L132.584 120.517L132.526 120.573C132.475 120.612 132.452 120.618 132.412 120.635C131.884 120.832 131.346 121.007 130.802 121.159C129.593 121.506 128.349 121.723 127.092 121.806C126.498 121.844 125.901 121.793 125.323 121.654C124.82 121.545 124.377 121.256 124.078 120.843C123.804 120.426 123.724 119.869 123.878 119.182C124.001 118.693 124.183 118.22 124.421 117.774L106.171 132H130.443L133.343 128.722C137.327 124.138 139.142 120.86 139.142 118.055V115.673Z" fill="white" stroke="#DB7092" stroke-width="2" mask="url(#path-3-inside-1)"/>
</g>
<defs>
<filter id="filter0_d" x="0" y="0" width="236" height="236" filterUnits="userSpaceOnUse" color-interpolation-filters="sRGB">
<feFlood flood-opacity="0" result="BackgroundImageFix"/>
<feColorMatrix in="SourceAlpha" type="matrix" values="0 0 0 0 0 0 0 0 0 0 0 0 0 0 0 0 0 0 127 0"/>
<feOffset dy="4"/>
<feGaussianBlur stdDeviation="2"/>
<feColorMatrix type="matrix" values="0 0 0 0 0 0 0 0 0 0 0 0 0 0 0 0 0 0 0.25 0"/>
<feBlend mode="normal" in2="BackgroundImageFix" result="effect1_dropShadow"/>
<feBlend mode="normal" in="SourceGraphic" in2="effect1_dropShadow" result="shape"/>
</filter>
</defs>
</svg>
