<svg width="236" height="236" viewBox="0 0 236 236" fill="none" xmlns="http://www.w3.org/2000/svg">
<g filter="url(#filter0_d)">
<circle cx="118" cy="114" r="111.5" stroke="#007ACC" stroke-width="5"/>
<circle cx="118" cy="114" r="90.5" fill="#007ACC" stroke="#007ACC"/>
<path d="M161.166 74.0008C165.749 74.0008 169.808 74.268 173.349 74.8023C176.69 75.2849 179.968 76.1079 183.129 77.2573V95.0058C181.612 93.994 180 93.1213 178.314 92.3991C176.575 91.6448 174.781 91.0172 172.945 90.5217C169.468 89.5873 165.877 89.1017 162.267 89.0776C160.021 89.0776 157.976 89.2798 156.134 89.6986C154.493 90.0372 152.918 90.6271 151.469 91.446C150.196 92.1969 149.223 93.0995 148.527 94.1465C147.826 95.2018 147.462 96.4318 147.478 97.6847C147.478 99.0999 147.875 100.378 148.646 101.504C149.425 102.631 150.533 103.699 151.964 104.71C153.394 105.721 155.131 106.703 157.175 107.671C159.219 108.646 161.533 109.649 164.109 110.675C167.629 112.097 170.788 113.613 173.589 115.209C176.389 116.812 178.793 118.625 180.8 120.646C182.807 122.661 184.334 124.964 185.398 127.557C186.461 130.149 187 133.16 187 136.604C187 141.348 186.064 145.341 184.207 148.562C182.393 151.738 179.789 154.43 176.629 156.396C173.223 158.478 169.449 159.937 165.494 160.7C161.256 161.566 156.786 161.999 152.091 161.999C147.47 162.019 142.857 161.622 138.313 160.815C134.381 160.159 130.568 158.96 126.991 157.255V138.265C133.759 143.818 142.344 146.887 151.23 146.93C153.723 146.93 155.902 146.713 157.759 146.28C159.624 145.847 161.174 145.24 162.424 144.475C163.667 143.695 164.596 142.785 165.217 141.731C165.904 140.503 166.217 139.114 166.119 137.722C166.021 136.33 165.516 134.994 164.663 133.868C163.551 132.448 162.19 131.226 160.642 130.257C158.723 129.03 156.702 127.958 154.599 127.051C152.108 125.954 149.594 124.904 147.059 123.903C140.185 121.137 135.063 117.751 131.686 113.758C128.316 109.765 126.624 104.934 126.624 99.2804C126.624 94.8469 127.545 91.0416 129.387 87.8573C131.229 84.673 133.73 82.0519 136.905 79.994C140.263 77.8577 143.991 76.3194 147.913 75.4522C152.255 74.4648 156.704 73.9776 161.166 74.0008ZM48 75.3583H119.608V90.9983H93.909V160.649H73.5641V90.9983H48V75.3583Z" fill="#E8E8E8"/>
</g>
<defs>
<filter id="filter0_d" x="0" y="0" width="236" height="236" filterUnits="userSpaceOnUse" color-interpolation-filters="sRGB">
<feFlood flood-opacity="0" result="BackgroundImageFix"/>
<feColorMatrix in="SourceAlpha" type="matrix" values="0 0 0 0 0 0 0 0 0 0 0 0 0 0 0 0 0 0 127 0"/>
<feOffset dy="4"/>
<feGaussianBlur stdDeviation="2"/>
<feColorMatrix type="matrix" values="0 0 0 0 0 0 0 0 0 0 0 0 0 0 0 0 0 0 0.25 0"/>
<feBlend mode="normal" in2="BackgroundImageFix" result="effect1_dropShadow"/>
<feBlend mode="normal" in="SourceGraphic" in2="effect1_dropShadow" result="shape"/>
</filter>
</defs>
</svg>
