<svg width="236" height="236" viewBox="0 0 236 236" fill="none" xmlns="http://www.w3.org/2000/svg">
<g filter="url(#filter0_d)">
<circle cx="118" cy="114" r="91" fill="#E95420"/>
<circle cx="118" cy="114" r="111.5" stroke="#E95420" stroke-width="5"/>
<path d="M118 48C154.427 48 184 77.5735 184 114C184 150.427 154.427 180 118 180C81.5735 180 52 150.427 52 114C52 77.5735 81.5735 48 118 48ZM136.035 145.24C131.822 147.666 130.375 153.061 132.811 157.279C135.237 161.487 140.633 162.933 144.846 160.491C149.059 158.066 150.505 152.67 148.063 148.452C145.637 144.244 140.248 142.798 136.035 145.24V145.24ZM118 139.74C114.123 139.74 110.449 138.877 107.16 137.348L101.038 148.32C106.153 150.844 111.917 152.286 118 152.286C121.553 152.286 124.974 151.785 128.23 150.877C128.802 147.341 130.897 144.091 134.252 142.149C137.602 140.219 141.474 140.026 144.812 141.291C151.335 134.894 155.576 126.171 156.197 116.458L143.63 116.277C142.475 129.427 131.447 139.74 118 139.74ZM92.26 114C92.26 105.294 96.5885 97.6045 103.205 92.935L96.77 82.1495C89.048 87.2645 83.3225 95.179 80.9245 104.342C83.7075 106.564 85.4895 110.029 85.4895 113.912C85.4895 117.784 83.7075 121.166 80.9245 123.476C83.3225 132.634 89.048 140.548 96.77 145.663L103.205 134.856C96.5885 130.335 92.26 122.657 92.26 114ZM73.12 105.189C68.2525 105.189 64.309 109.133 64.309 114C64.309 118.867 68.2525 122.811 73.12 122.811C77.9875 122.811 81.9255 118.867 81.9255 114C81.9255 109.133 77.9875 105.189 73.12 105.189V105.189ZM118 88.26C131.447 88.26 142.475 98.5725 143.63 111.718L156.197 111.53C155.576 101.823 151.33 93.1055 144.812 86.6925C141.463 87.9685 137.591 87.7595 134.252 85.8455C130.903 83.9095 128.807 80.648 128.23 77.095C124.963 76.215 121.553 75.72 118 75.72C111.895 75.72 106.148 77.15 101.038 79.68L107.16 90.6525C110.46 89.118 114.133 88.26 118 88.26ZM136.035 82.7545C140.242 85.1855 145.638 83.75 148.074 79.537C150.5 75.3295 149.069 69.934 144.84 67.492C140.632 65.072 135.237 66.5075 132.8 70.7315C130.375 74.9335 131.811 80.3235 136.035 82.7545V82.7545Z" fill="white"/>
</g>
<defs>
<filter id="filter0_d" x="0" y="0" width="236" height="236" filterUnits="userSpaceOnUse" color-interpolation-filters="sRGB">
<feFlood flood-opacity="0" result="BackgroundImageFix"/>
<feColorMatrix in="SourceAlpha" type="matrix" values="0 0 0 0 0 0 0 0 0 0 0 0 0 0 0 0 0 0 127 0"/>
<feOffset dy="4"/>
<feGaussianBlur stdDeviation="2"/>
<feColorMatrix type="matrix" values="0 0 0 0 0 0 0 0 0 0 0 0 0 0 0 0 0 0 0.25 0"/>
<feBlend mode="normal" in2="BackgroundImageFix" result="effect1_dropShadow"/>
<feBlend mode="normal" in="SourceGraphic" in2="effect1_dropShadow" result="shape"/>
</filter>
</defs>
</svg>
