<svg width="236" height="236" viewBox="0 0 236 236" fill="none" xmlns="http://www.w3.org/2000/svg">
<g filter="url(#filter0_d)">
<circle cx="118" cy="114" r="111.5" stroke="#007ACC" stroke-width="5"/>
<circle cx="118" cy="114" r="90.5" fill="#007ACC" stroke="#007ACC"/>
<path d="M166.317 72.9987L144.91 62.6445C143.701 62.0588 142.34 61.8658 141.016 62.0921C139.692 62.3185 138.471 62.953 137.522 63.9077L96.5294 101.5L78.6763 87.8746C77.8709 87.2604 76.877 86.949 75.8671 86.9944C74.8571 87.0397 73.8948 87.439 73.1471 88.1228L67.4185 93.3588C66.9721 93.7667 66.6153 94.2639 66.371 94.8184C66.1268 95.3729 66.0004 95.9726 66 96.5791C65.9996 97.1856 66.1252 97.7854 66.3687 98.3403C66.6122 98.8952 66.9683 99.3928 67.4141 99.8013L82.8969 114.002L67.4141 128.203C66.9683 128.611 66.6122 129.109 66.3687 129.664C66.1252 130.219 65.9996 130.818 66 131.425C66.0004 132.031 66.1268 132.631 66.371 133.186C66.6153 133.74 66.9721 134.237 67.4185 134.645L73.1514 139.877C73.8992 140.561 74.8615 140.96 75.8714 141.005C76.8813 141.051 77.8752 140.739 78.6806 140.125L96.5337 126.499L137.526 164.092C138.475 165.047 139.695 165.682 141.018 165.908C142.341 166.134 143.701 165.941 144.91 165.355L166.325 155.001C167.427 154.466 168.356 153.63 169.007 152.588C169.657 151.546 170.001 150.341 170 149.112V78.8881C170 77.6574 169.654 76.4516 169.003 75.4097C168.351 74.3678 167.42 73.5321 166.317 72.9987ZM144.018 137.734L112.913 114.002L144.018 90.2704V137.734V137.734Z" fill="#D4D4D4"/>
</g>
<defs>
<filter id="filter0_d" x="0" y="0" width="236" height="236" filterUnits="userSpaceOnUse" color-interpolation-filters="sRGB">
<feFlood flood-opacity="0" result="BackgroundImageFix"/>
<feColorMatrix in="SourceAlpha" type="matrix" values="0 0 0 0 0 0 0 0 0 0 0 0 0 0 0 0 0 0 127 0"/>
<feOffset dy="4"/>
<feGaussianBlur stdDeviation="2"/>
<feColorMatrix type="matrix" values="0 0 0 0 0 0 0 0 0 0 0 0 0 0 0 0 0 0 0.25 0"/>
<feBlend mode="normal" in2="BackgroundImageFix" result="effect1_dropShadow"/>
<feBlend mode="normal" in="SourceGraphic" in2="effect1_dropShadow" result="shape"/>
</filter>
</defs>
</svg>
